<?xml version="1.0" encoding="utf-8"?>
<!-- Generator: Adobe Illustrator 24.3.0, SVG Export Plug-In . SVG Version: 6.00 Build 0)  -->
<svg version="1.1" id="home" xmlns="http://www.w3.org/2000/svg" xmlns:xlink="http://www.w3.org/1999/xlink" x="0px" y="0px"
	 viewBox="0 0 32.97 36.24" style="enable-background:new 0 0 32.97 36.24;" xml:space="preserve">
<style type="text/css">
	.st0{fill:none;}
	.st1{stroke:#000000;stroke-width:0.14;stroke-miterlimit:10;}
	.st2{fill:#FD3B4C;}
	.st3{fill-rule:evenodd;clip-rule:evenodd;fill:#F4863B;}
	.st4{fill:#FFFFFF;}
	.st5{fill-rule:evenodd;clip-rule:evenodd;fill:#5C7BFC;}
	.st6{fill-rule:evenodd;clip-rule:evenodd;fill:#FEB92B;}
	.st7{fill-rule:evenodd;clip-rule:evenodd;fill:#3EAF66;}
	.st8{fill:#8F4DDB;}
	.st9{fill:#1D1E22;}
	.st10{fill:#FD565F;}
	.st11{fill:#25282D;}
	.st12{fill:#E6E6E6;}
	.st13{fill-rule:evenodd;clip-rule:evenodd;fill:#FD3B4C;}
	.st14{fill-rule:evenodd;clip-rule:evenodd;fill:#FFFFFF;}
	.st15{fill:#12B263;}
	.st16{fill:#3EAF66;}
	.st17{fill:#DC001A;}
	.st18{fill:#F6504B;}
	.st19{fill:#DB001A;}
	.st20{fill:#F54F4A;}
</style>
<path id="Path_45208_4_" class="st19" d="M27.78,2.4l1.56,4.83l1.96-2.12V1.45L27.63,0L24.6,2.42L27.78,2.4z"/>
<path id="Path_45209_4_" class="st19" d="M28.37,9.85L28.37,9.85l-1.84-5.7h-4.95l1.28,4.03h-6.38v28.06l16.49-13.69L28.37,9.85z
	 M21.24,18.67v-2.62l3.69-1.47l0.54,1.66L21.24,18.67z"/>
<path id="Path_45210_4_" class="st20" d="M5.19,2.4L3.63,7.23L1.67,5.11V1.45L5.34,0l3.03,2.42L5.19,2.4z"/>
<path id="Path_45211_4_" class="st20" d="M10.11,8.18l1.28-4.03H6.44L4.6,9.85l0,0L0,22.55l16.48,13.69V8.18L10.11,8.18z
	 M11.73,18.67l-4.23-2.44l0.54-1.66l3.69,1.47V18.67z"/>
</svg>
